<?xml version="1.0" encoding="iso-8859-1"?>
<!-- Generator: Adobe Illustrator 19.0.0, SVG Export Plug-In . SVG Version: 6.00 Build 0)  -->
<svg version="1.1" id="Layer_1" xmlns="http://www.w3.org/2000/svg" xmlns:xlink="http://www.w3.org/1999/xlink" x="0px" y="0px"
	 viewBox="0 0 502.4 502.4" style="enable-background:new 0 0 502.4 502.4;" xml:space="preserve">
<g>
	<path style="fill:#F7910B;" d="M493.6,314.4c0,104-95.2,188-242.4,188s-242.4-84-242.4-188s95.2-260,242.4-260
		S493.6,210.4,493.6,314.4z"/>
	<path style="fill:#F7910B;" d="M493.6,314.4c0,104-95.2,156-242.4,156s-242.4-52-242.4-156s95.2-276,242.4-276
		S493.6,210.4,493.6,314.4z"/>
</g>
<g>
	<path style="fill:#F9A908;" d="M251.2,38.4c147.2,0,242.4,172,242.4,276s-95.2,156-242.4,156"/>
	<path style="fill:#F9A908;" d="M493.6,314.4c0,104-95.2,156-242.4,156s-242.4-52-242.4-156s95.2-260,242.4-260
		S493.6,210.4,493.6,314.4z"/>
</g>
<path style="fill:#F9C55D;" d="M8.8,314.4c0-104,95.2-260,242.4-260"/>
<path style="fill:#F7910B;" d="M251.2,54.4c147.2,0,242.4,156,242.4,260s-95.2,188-242.4,188"/>
<path style="fill:#EA7103;" d="M251.2,54.4c147.2,0,242.4,156,242.4,260"/>
<g>
	<path style="fill:#19BCA4;" d="M200.8,179.2c2.4,6.4-9.6,7.2-23.2,12c-13.6,4.8-23.2,12-25.6,5.6c-2.4-6.4,6.4-16,20-20.8
		C184.8,171.2,198.4,172,200.8,179.2z"/>
	<path style="fill:#19BCA4;" d="M301.6,142.4c0,7.2,11.2,4,26.4,4.8c14.4,0.8,26.4,4.8,26.4-2.4s-11.2-12.8-25.6-13.6
		C313.6,130.4,301.6,135.2,301.6,142.4z"/>
</g>
<g>
	<path style="fill:#109DA0;" d="M200.8,179.2c2.4,6.4-9.6,7.2-23.2,12c-13.6,4.8-23.2,12-25.6,5.6"/>
	<path style="fill:#109DA0;" d="M301.6,142.4c0,7.2,11.2,4,26.4,4.8c14.4,0.8,26.4,4.8,26.4-2.4"/>
</g>
<g>
	<circle style="fill:#F7910B;" cx="77.6" cy="290.4" r="4.8"/>
	<circle style="fill:#F7910B;" cx="41.6" cy="306.4" r="8.8"/>
	<circle style="fill:#F7910B;" cx="65.6" cy="274.4" r="1.6"/>
	<circle style="fill:#F7910B;" cx="102.4" cy="288.8" r="1.6"/>
</g>
<g>
	<circle style="fill:#F9A908;" cx="416" cy="292.8" r="6.4"/>
	<circle style="fill:#F9A908;" cx="436" cy="304" r="1.6"/>
	<circle style="fill:#F9A908;" cx="393.6" cy="233.6" r="2.4"/>
	<circle style="fill:#F9A908;" cx="354.4" cy="224.8" r="10.4"/>
	<circle style="fill:#F9A908;" cx="447.2" cy="327.2" r="4.8"/>
</g>
<g>
	<circle style="fill:#F7910B;" cx="69.6" cy="322.4" r="4"/>
	<circle style="fill:#F7910B;" cx="76" cy="255.2" r="3.2"/>
</g>
<g>
	<circle style="fill:#F9A908;" cx="33.6" cy="144.8" r="8.8"/>
	<circle style="fill:#F9A908;" cx="59.2" cy="116.8" r="4.8"/>
	<circle style="fill:#F9A908;" cx="468.8" cy="164" r="1.6"/>
	<circle style="fill:#F9A908;" cx="462.4" cy="140.8" r="6.4"/>
	<path style="fill:#F9A908;" d="M487.2,144.8c0,2.4-1.6,4-4,4s-4-1.6-4-4s1.6-4,4-4C484.8,140.8,487.2,143.2,487.2,144.8z"/>
	<circle style="fill:#F9A908;" cx="43.2" cy="168.8" r="4.8"/>
</g>
<path style="fill:#CE3674;" d="M251.2,5.6C154.4,5.6,76,16.8,76,29.6c0,13.6,78.4,37.6,175.2,37.6s175.2-24,175.2-37.6
	S348,5.6,251.2,5.6z M251.2,38.4c-54.4,0-98.4-6.4-98.4-13.6s44-13.6,98.4-13.6s98.4,6.4,98.4,13.6S305.6,38.4,251.2,38.4z"/>
<path style="fill:#EA5C93;" d="M251.2,0C154.4,0,76,11.2,76,24c0,13.6,78.4,24,175.2,24s175.2-11.2,175.2-24S348,0,251.2,0z
	 M251.2,32.8c-54.4,0-98.4-5.6-98.4-13.6c0-7.2,44-13.6,98.4-13.6s98.4,6.4,98.4,13.6C349.6,27.2,305.6,32.8,251.2,32.8z"/>
<path style="fill:#F9C55D;" d="M214.4,336c0,10.4-30.4,5.6-68.8,5.6c-37.6,0-68.8,4.8-68.8-5.6s30.4-19.2,68.8-19.2
	C184,316.8,214.4,325.6,214.4,336z"/>
<path style="fill:#F9A908;" d="M425.6,336c0,10.4-30.4,5.6-68.8,5.6c-37.6,0-68.8,4.8-68.8-5.6s30.4-19.2,68.8-19.2
	C394.4,316.8,425.6,325.6,425.6,336z"/>
<path style="fill:#1E4784;" d="M128.8,278.4c3.2,0,6.4,1.6,9.6,4c11.2,11.2,29.6,11.2,40.8,0c4.8-4.8,13.6-5.6,18.4,0
	c4.8,4.8,5.6,13.6,0,18.4c-21.6,21.6-56.8,21.6-78.4,0c-4.8-4.8-5.6-13.6,0-18.4C122.4,280,125.6,278.4,128.8,278.4z"/>
<path style="fill:#02243E;" d="M120,300.8c-4.8-4.8-5.6-13.6,0-18.4c2.4-2.4,5.6-4,9.6-4c3.2,0,6.4,1.6,9.6,4
	c11.2,11.2,29.6,11.2,40.8,0c4.8-4.8,13.6-5.6,18.4,0c4.8,4.8,5.6,13.6,0,18.4"/>
<path style="fill:#1E4784;" d="M373.6,278.4c-3.2,0-6.4,1.6-9.6,4c-11.2,11.2-29.6,11.2-40.8,0c-4.8-4.8-13.6-5.6-18.4,0
	c-4.8,4.8-5.6,13.6,0,18.4c21.6,21.6,56.8,21.6,78.4,0c4.8-4.8,4.8-13.6,0-18.4C380,280,376.8,278.4,373.6,278.4z"/>
<path style="fill:#02243E;" d="M382.4,300.8c4.8-4.8,4.8-13.6,0-18.4c-2.4-2.4-5.6-4-9.6-4c-3.2,0-6.4,1.6-9.6,4
	c-11.2,11.2-29.6,11.2-40.8,0c-4.8-4.8-13.6-5.6-18.4,0c-4.8,4.8-5.6,13.6,0,18.4"/>
<path style="fill:#F7910B;" d="M310.4,388c0,20.8-26.4,58.4-59.2,58.4S192,408.8,192,388"/>
<g>
	<path style="fill:#02243E;" d="M131.2,371.2c-4.8,0-8.8-4-8.8-8.8s4-8.8,8.8-8.8c7.2,0,12.8-5.6,12.8-12.8c0-4.8,4-8.8,8.8-8.8
		s8.8,4,8.8,8.8C160.8,357.6,147.2,371.2,131.2,371.2z"/>
	<path style="fill:#02243E;" d="M371.2,371.2c-16.8,0-30.4-13.6-30.4-30.4c0-4.8,4-8.8,8.8-8.8s8.8,4,8.8,8.8
		c0,7.2,5.6,12.8,12.8,12.8c4.8,0,8.8,4,8.8,8.8S376,371.2,371.2,371.2z"/>
	<path style="fill:#02243E;" d="M251.2,410.4c-40,0-80.8-15.2-111.2-46.4c-3.2-3.2-3.2-8.8,0-12.8c3.2-3.2,8.8-3.2,12.8,0
		c54.4,54.4,143.2,54.4,198.4,0c3.2-3.2,8.8-3.2,12.8,0c3.2,3.2,3.2,8.8,0,12.8C332,395.2,291.2,410.4,251.2,410.4z"/>
</g>
<g>
	<path style="fill:#12AD79;" d="M47.2,34.4c0-3.2,2.4-5.6,5.6-5.6c3.2,0,6.4,2.4,6.4,5.6"/>
	<circle style="fill:#12AD79;" cx="115.2" cy="74.4" r="9.6"/>
	<circle style="fill:#12AD79;" cx="58.4" cy="79.2" r="25.6"/>
	<path style="fill:#12AD79;" d="M377.6,67.2c1.6,0,3.2,1.6,3.2,3.2s-1.6,3.2-3.2,3.2"/>
	<circle style="fill:#12AD79;" cx="415.2" cy="69.6" r="4.8"/>
	<path style="fill:#12AD79;" d="M428,99.2c0-4,3.2-8,8-8c4,0,8,3.2,8,8"/>
	<circle style="fill:#12AD79;" cx="456.8" cy="54.4" r="14.4"/>
	<circle style="fill:#12AD79;" cx="472.8" cy="103.2" r="6.4"/>
</g>
<g>
</g>
<g>
</g>
<g>
</g>
<g>
</g>
<g>
</g>
<g>
</g>
<g>
</g>
<g>
</g>
<g>
</g>
<g>
</g>
<g>
</g>
<g>
</g>
<g>
</g>
<g>
</g>
<g>
</g>
</svg>
