<?xml version="1.0" encoding="iso-8859-1"?>
<!-- Generator: Adobe Illustrator 19.0.0, SVG Export Plug-In . SVG Version: 6.00 Build 0)  -->
<svg version="1.1" id="Layer_1" xmlns="http://www.w3.org/2000/svg" xmlns:xlink="http://www.w3.org/1999/xlink" x="0px" y="0px"
	 viewBox="0 0 492.8 492.8" style="enable-background:new 0 0 492.8 492.8;" xml:space="preserve">
<g>
	<path style="fill:#F7910B;" d="M488.8,304.8c0,104-95.2,188-242.4,188S4,408.8,4,304.8s95.2-260,242.4-260S488.8,200.8,488.8,304.8
		z"/>
	<path style="fill:#F7910B;" d="M488.8,304.8c0,104-95.2,156-242.4,156S4,408.8,4,304.8s95.2-276,242.4-276S488.8,200.8,488.8,304.8
		z"/>
</g>
<g>
	<path style="fill:#F9A908;" d="M246.4,28.8c147.2,0,242.4,172,242.4,276s-95.2,156-242.4,156"/>
	<path style="fill:#F9A908;" d="M488.8,304.8c0,104-95.2,156-242.4,156S4,408.8,4,304.8s95.2-260,242.4-260S488.8,200.8,488.8,304.8
		z"/>
</g>
<path style="fill:#F9C55D;" d="M4,304.8c0-104,95.2-260,242.4-260"/>
<path style="fill:#F7910B;" d="M246.4,44.8c147.2,0,242.4,156,242.4,260s-95.2,188-242.4,188"/>
<path style="fill:#EA7103;" d="M246.4,44.8c147.2,0,242.4,156,242.4,260"/>
<path style="fill:#F9C55D;" d="M212.8,251.2c0,9.6-28,5.6-62.4,5.6S88,261.6,88,251.2c0-9.6,28-17.6,62.4-17.6
	C184.8,233.6,212.8,241.6,212.8,251.2z"/>
<path style="fill:#F9A908;" d="M404.8,251.2c0,9.6-28,5.6-62.4,5.6s-62.4,4.8-62.4-5.6c0-9.6,28-17.6,62.4-17.6
	S404.8,241.6,404.8,251.2z"/>
<g>
	<circle style="fill:#F7910B;" cx="72.8" cy="280.8" r="4.8"/>
	<circle style="fill:#F7910B;" cx="36.8" cy="296.8" r="8.8"/>
	<circle style="fill:#F7910B;" cx="60.8" cy="264.8" r="1.6"/>
	<circle style="fill:#F7910B;" cx="97.6" cy="279.2" r="1.6"/>
</g>
<g>
	<circle style="fill:#F9A908;" cx="411.2" cy="284" r="6.4"/>
	<circle style="fill:#F9A908;" cx="431.2" cy="294.4" r="1.6"/>
	<circle style="fill:#F9A908;" cx="388.8" cy="224" r="2.4"/>
	<circle style="fill:#F9A908;" cx="384.8" cy="316.8" r="10.4"/>
	<circle style="fill:#F9A908;" cx="442.4" cy="317.6" r="4.8"/>
</g>
<g>
	<circle style="fill:#F7910B;" cx="64.8" cy="312.8" r="4"/>
	<circle style="fill:#F7910B;" cx="71.2" cy="245.6" r="3.2"/>
</g>
<g>
	<circle style="fill:#F9A908;" cx="28.8" cy="136" r="8.8"/>
	<circle style="fill:#F9A908;" cx="54.4" cy="107.2" r="4.8"/>
	<circle style="fill:#F9A908;" cx="464" cy="154.4" r="1.6"/>
	<circle style="fill:#F9A908;" cx="457.6" cy="131.2" r="6.4"/>
	<circle style="fill:#F9A908;" cx="478.4" cy="136" r="4"/>
	<circle style="fill:#F9A908;" cx="38.4" cy="159.2" r="4.8"/>
</g>
<path style="fill:#F7910B;" d="M322.4,388.8c0,20.8-33.6,37.6-76,37.6c-41.6,0-76-16.8-76-37.6"/>
<path style="fill:#C42260;" d="M340,336.8c0,53.6-41.6,74.4-93.6,74.4s-93.6-20.8-93.6-74.4s41.6-81.6,93.6-81.6
	C298.4,256,340,284,340,336.8z"/>
<path style="fill:#E2446E;" d="M338.4,352c-11.2-2.4-24-4-36.8-4c-20,0-39.2,3.2-56,9.6c-16.8-5.6-35.2-9.6-56-9.6
	c-12.8,0-24.8,1.6-36.8,4c7.2,42.4,45.6,59.2,92,59.2C292.8,411.2,331.2,394.4,338.4,352z"/>
<path style="fill:#99144A;" d="M336,310.4c-9.6-32.8-47.2-56-89.6-56c-43.2,0-80,24-89.6,56H336z"/>
<path style="fill:#1E4784;" d="M186.4,240.8c-3.2-1.6-5.6-4-7.2-7.2c-5.6-15.2-22.4-22.4-37.6-16.8c-6.4,2.4-14.4-0.8-16.8-8
	c-2.4-6.4,0.8-14.4,7.2-16.8c28.8-11.2,60.8,3.2,71.2,32c2.4,7.2-0.8,14.4-8,16.8C192.8,242.4,188.8,242.4,186.4,240.8z"/>
<path style="fill:#02243E;" d="M204,224c2.4,7.2-0.8,14.4-8,16.8c-3.2,1.6-7.2,0.8-10.4,0c-3.2-1.6-5.6-4-7.2-7.2
	c-5.6-15.2-22.4-22.4-37.6-16.8c-6.4,2.4-14.4-0.8-16.8-8c-2.4-6.4,0.8-14.4,7.2-16.8"/>
<path style="fill:#1E4784;" d="M306.4,240.8c3.2-1.6,5.6-4,7.2-7.2c5.6-15.2,22.4-22.4,37.6-16.8c6.4,2.4,14.4-0.8,16.8-8
	c2.4-6.4-0.8-14.4-7.2-16.8c-28.8-11.2-60.8,3.2-71.2,32c-2.4,7.2,0.8,14.4,8,16.8C300,242.4,304,242.4,306.4,240.8z"/>
<path style="fill:#02243E;" d="M288.8,224c-2.4,7.2,0.8,14.4,8,16.8c3.2,1.6,7.2,0.8,10.4,0c3.2-1.6,5.6-4,7.2-7.2
	c5.6-15.2,22.4-22.4,37.6-16.8c6.4,2.4,14.4-0.8,16.8-8c2.4-6.4-0.8-14.4-7.2-16.8"/>
<g>
	<path style="fill:#109DA0;" d="M211.2,184.8c-8,13.6-20.8-3.2-42.4-15.2c-20.8-12-42.4-15.2-34.4-28.8s31.2-14.4,52-2.4
		C208,151.2,218.4,172,211.2,184.8z"/>
	<path style="fill:#109DA0;" d="M281.6,184.8c8,13.6,20.8-3.2,42.4-15.2c20.8-12,42.4-15.2,34.4-28.8s-31.2-14.4-52-2.4
		C284.8,151.2,274.4,172,281.6,184.8z"/>
</g>
<polygon style="fill:#B20644;" points="446.4,84.8 482.4,117.6 433.6,115.2 436,164 403.2,127.2 371.2,164 373.6,115.2 324.8,117.6 
	360.8,84.8 324.8,52 373.6,55.2 371.2,6.4 403.2,42.4 436,6.4 433.6,55.2 482.4,52 "/>
<polygon style="fill:#FF004F;" points="443.2,68.8 488.8,86.4 442.4,101.6 463.2,145.6 419.2,124.8 402.4,170.4 386.4,124 
	342.4,144.8 364,100.8 318.4,84 364.8,68 344,24 388,45.6 404.8,0 420,45.6 464.8,25.6 "/>
<g>
</g>
<g>
</g>
<g>
</g>
<g>
</g>
<g>
</g>
<g>
</g>
<g>
</g>
<g>
</g>
<g>
</g>
<g>
</g>
<g>
</g>
<g>
</g>
<g>
</g>
<g>
</g>
<g>
</g>
</svg>
