<svg xmlns="http://www.w3.org/2000/svg" viewBox="0 0 494.21 292.22"><defs><style>.cls-1{fill:#fff;}</style></defs><title>signature_woman</title><g id="Слой_2" data-name="Слой 2"><g id="Слой_1-2" data-name="Слой 1"><path class="cls-1" d="M35.3,65.37a36.16,36.16,0,0,1,3.33-21.86c2.51-5,8.82-14.89,15.52-12.53C61.78,33.67,69,40.71,75.31,45.61c7,5.44,14,11,21.22,16.19C109.27,71,124.31,81,140.34,82.6c16.49,1.61,30.19-7.78,32.75-24.38,2.93-19-2.53-39.27-11.45-55.95C159.16-2.39,149.89,1,148.1,4.67,136.81,27.82,137.61,55,136.15,80.09l-4.92,84.67c-.78,13.49-1.49,27-3.36,40.42-.82,5.9-1.45,12.29-3.36,18l-.49,1.31q-1.56,2.41,1.59-.13c0,.06-3.18-1.74-3-1.63-2.94-1.76-5.78-3.73-8.62-5.65A381.07,381.07,0,0,1,56.84,169.9a388.31,388.31,0,0,1-27.49-30.71c-7.77-9.68-18.42-23.25-13.43-36.47l-5.62,4.06c20.62-5.51,42.06,4.23,60.11,13.48a417.44,417.44,0,0,1,54.5,34c17.42,12.64,34.14,26.22,50.68,40,7.35,6.12,15,15.1,25.59,11.76,9.61-3,11.19-14.53,12.09-23.22a78.84,78.84,0,0,0-17.9-58.36c-2.37-2.81-6.83-2.25-9.81-1-10.33,4.46-17.44,13.35-20.51,24.05-3.26,11.35-.73,23.11,4.48,33.45,10.65,21.15,32.86,43.19,58.53,39.39,12.11-1.8,22.53-9,27.72-20.21s4.43-24.15.68-35.81c-3.31-10.3-8.27-24.28-19.86-27.57-8.57-2.43-24.61,4.43-21.84,15.46,1.61,6.4,9.76,5.28,14.6,8a37,37,0,0,1,13.07,13.27c7.79,12.84,8.15,29,8.58,43.56.09,2.95,2.13,4,4.78,4.54,16.25,3.09,29.61-10,35.9-23.63,7.64-16.51,9.85-34.92,11.21-52.86,3-39.78.86-79.71-1.29-119.47L287,28.16c4.6,67.19,9.19,134.39,12.47,201.66q1.41,28.88,2.46,57.77c.27,7.54,13.52,4.95,14.66-1.19l20.41-110c1-5.4-7.71-4.94-10.5-3.53-15.64,7.93-14.38,28.14,0,36.69,16.67,9.9,38.78,5.92,54.18-4.41l-7.31,2q55.91,4.66,111.18,14.55c7,1.25,14.75-8.53,5.09-10.26q-50.86-9.1-102.36-13.79c-3.93-.35-8.76-1.48-12.66-.44-3.54.95-6.5,3.71-9.9,5.11A33.59,33.59,0,0,1,344.83,204c-5.66-1.29-11.65-4.47-14.1-10-1.55-3.5-2-10.82,2.14-12.92l-10.5-3.53L302,287.59l14.66-1.19C314.16,218.53,310,150.73,305.5,83q-2-29.35-4-58.69c-.41-6-14.88-3.16-14.57,2.53,1.9,35.18,3.81,70.45,2.14,105.68-.77,16.24-1.82,32.8-5.83,48.61-1.83,7.18-4.33,14.58-8.31,20.89-3.11,4.93-7.74,10.53-14.07,9.33l4.78,4.54c-.46-15.68-1-32-8.51-46.13-6.47-12.12-17.86-21-31.67-22.66l4.1,2c-.82-1.33.25-1.47.43-2.57q1.27-.81-.6,0a1.44,1.44,0,0,0,1.19.82c1,1.44,2.81,2.6,3.87,4.13a37.17,37.17,0,0,1,2.93,5.21c4,8.44,7.44,18,7.5,27.47.06,7.63-2.09,16-7.64,21.51-5.86,5.84-14.36,5.58-21.66,2.79-8.07-3.09-14.71-9.23-20.31-15.63-5.8-6.63-11.11-14-14.19-22.31-4.85-13.06-3.93-32.44,10.81-38.8l-9.81-1a71.73,71.73,0,0,1,15.64,59.33c-.29,1.5-2.31,5.93-2,7.35l4.34-.87a8.17,8.17,0,0,1-1.87-1.09,39.32,39.32,0,0,1-3.15-2.51c-4.83-4-9.63-8-14.46-12-9.45-7.81-19-15.53-28.69-23-19.34-14.91-39.42-29-60.82-40.79-20.7-11.44-43.52-22.84-67.76-22.26-5.35.13-11.52.68-16.53,2.68C1.07,99.79-.09,106.28,0,111.9c.2,11.3,6.69,21.59,13.4,30.24a383.25,383.25,0,0,0,47.39,50.39q13.44,12,28,22.79,6.56,4.86,13.32,9.44c4.74,3.21,9.69,7.12,15.12,9.1a17.31,17.31,0,0,0,16.19-2.24c4.63-3.56,5.81-9.29,6.93-14.7a274.47,274.47,0,0,0,4.6-37.23c2.07-30.25,3.56-60.55,5.32-90.83.85-14.66,1.47-29.36,2.65-44,1.08-13.33,3.11-26.56,9-38.69l-13.55,2.4c8,14.87,12.51,33.24,10.19,50.12-.86,6.26-3.32,13.46-10.62,13.75-7.47.29-15-3.48-21.44-6.92-15.16-8.15-28.42-19.26-42-29.69-6.54-5-13.37-11.07-21.13-14.11-8.12-3.18-16.76-1.44-23.87,3.33-14.31,9.61-21.37,27.4-18.67,44.2,1,6.47,15.57,2.86,14.49-3.88Z"/></g></g></svg>