<svg xmlns="http://www.w3.org/2000/svg" viewBox="0 0 316.99 234.03"><defs><style>.cls-1{fill:#fff;}</style></defs><title>Ресурс 3</title><g id="Слой_2" data-name="Слой 2"><g id="Слой_1-2" data-name="Слой 1"><path class="cls-1" d="M4,1.11l3.9,232.08,2.91-.53L5.52,117.93C4.63,98.55,3.1,79.08,2.94,59.68c-.07-8.51.75-18,6.39-24.85,6.26-7.57,17-10.2,24.14-2.28,6.9,7.69,6,18.94,4.35,28.38a118.31,118.31,0,0,1-9.54,30.23c-.37.8.57,1.14,1.21,1.05C44.95,90.16,62.46,88,76,97.54c12.91,9.07,20.23,25.88,25,40.36a126.8,126.8,0,0,1,5.24,22.84c1,7.82,2.07,16.86-1.41,24.26-6.83,14.52-30.48,14.5-44,13.13A88.74,88.74,0,0,1,14.33,179c-.73-.59-3.35.44-2.47,1.38,7.34,7.9,19.46,5.24,26.63-1.45,10-9.31,15.13-24.67,18.6-37.5,4.14-15.3,5.6-31.24,5.31-47.06-.31-17.18-4.05-34.45-1.65-51.6L58,43.54Q67.08,55.76,76.19,68c5.23,7,10.58,14,17.21,19.67,10.67,9.22,25,14.53,38.81,9.65,30.33-10.72,38.3-52.18,34.4-80-.18-1.27-2.67-.32-2.91.53Q142.8,93,125.49,169.11l2.91-.53c-7.32-23.07,19.75-43.54,37.11-53l-2.06-.35c1.16,5.33-3.77,8.66-7.51,11.42s-7.46,5.48-11.19,8.22l-22.38,16.44,2.12.9a15.21,15.21,0,0,1,19.94-.51c4,3.34,5.38,8.52,8.53,12.51,6.41,8.12,16.27,4,23.08-1.32,17.56-13.71,24.47-36.31,30.47-56.81l-2.91.53c3.67,18.26-1.24,38-3.67,56.18l-7.54,56.48,2.92-.28c.59-16.08,8.85-31.8,14.46-46.64L227,126.68l-2.82.28,9.68,21.42c2.24,5,4.16,12.1,8.45,15.8,7.35,6.34,17.35-.77,23.07-5.85l-2.53.26c10.81,20.68,37.5,11.08,53.3,3.52,1.8-.86.18-2.15-1.22-1.48-15,7.16-39.22,16.24-49.4-3.25-.44-.85-2.06-.15-2.53.26-4.12,3.66-9.47,8-15.39,6.77-5-1-7.06-8.4-8.84-12.34l-11.7-25.89c-.43-1-2.47-.64-2.82.28l-18,47.46c-5.44,14.38-13.38,29.7-14,45.31-.05,1.38,2.77.86,2.92-.28l7.8-58.43c2.38-17.8,7-36.83,3.38-54.73-.26-1.27-2.66-.33-2.91.53-3.25,11.11-6.64,22.28-11.84,32.67-5,9.94-13.08,22.66-24,26.83-9,3.44-12.33-2.94-16.06-9.41-2.27-3.94-4.94-7.12-9.27-8.82a19.38,19.38,0,0,0-20.31,3.9c-1.25,1.17,1.37,1.46,2.12.9L153,131.26c5.24-3.85,15.06-8.92,13.33-16.84-.17-.79-1.59-.61-2.06-.35-18.07,9.88-46.44,31.14-38.78,55.28.38,1.19,2.69.43,2.91-.53Q145.71,92.77,166.63,17.6l-2.91.53a94.24,94.24,0,0,1-5.35,47.67C153.54,78,144.92,90.41,132.3,95.34c-16,6.25-31.86-3.48-42.46-15C79.05,68.69,70.12,55.05,60.63,42.32c-.6-.81-2.66-.22-2.79.75-1.94,13.86.33,27.62,1.23,41.46a191.48,191.48,0,0,1-1.4,40.36,131.59,131.59,0,0,1-11.45,38.28c-2.63,5.41-5.63,11-10.1,15.09-6,5.53-15.52,7.45-21.58.93l-2.47,1.38a90.93,90.93,0,0,0,44.51,19.09c13.89,1.91,33.08,1.94,44.85-6.94,13.26-10,8.67-31.47,5.42-45.18-4-16.73-11.27-35.88-24.11-47.92C68.29,86.09,48,87.9,29.82,90.32L31,91.37a120.8,120.8,0,0,0,9.23-28c1.72-8.83,3.15-18.93-1-27.33-6.77-13.65-23.3-12.72-32.3-1.88C1.58,40.62.19,49.24,0,57.41c-.2,10.1.71,20.28,1.17,30.37l3.12,67.84L7.9,233.44c.05,1.09,2.93.52,2.91-.53L6.91.83C6.89-.56,4,0,4,1.11Z"/></g></g></svg>